<?xml version="1.0" encoding="utf-8"?>
<!-- Generator: Adobe Illustrator 22.0.1, SVG Export Plug-In . SVG Version: 6.00 Build 0)  -->
<svg version="1.1" xmlns="http://www.w3.org/2000/svg" xmlns:xlink="http://www.w3.org/1999/xlink" x="0px" y="0px"
	 viewBox="0 0 130 130" style="enable-background:new 0 0 130 130;" xml:space="preserve">
<style type="text/css">
	.st0{fill:#231F20;}
	.st1{fill:#FFFFFF;}
	.st2{fill:none;stroke:#FC7769;stroke-width:0.5;stroke-miterlimit:10;}
	.st3{fill:none;stroke:#000000;stroke-width:0.5;stroke-linecap:round;stroke-linejoin:round;stroke-miterlimit:10;}
	.st4{fill:#929292;}
	.st5{fill:#FC7769;}
	.st6{fill:#27C79D;}
	.st7{fill:#27B1F1;}
	.st8{fill:#26B18E;}
	.st9{fill:#868686;}
	.st10{fill:#E55C4E;}
	.st11{fill:#2092C7;}
	.st12{fill:#30DEAF;}
	.st13{fill:#FF9C7D;}
	.st14{fill:#61CCFF;}
	.st15{fill:url(#SVGID_1_);}
	.st16{fill:url(#SVGID_2_);}
	.st17{fill:url(#SVGID_3_);}
	.st18{fill:#CFF0FF;}
	.st19{fill:#8ADAFF;}
	.st20{fill:none;stroke:#777676;stroke-width:0.5;stroke-linecap:round;stroke-linejoin:round;stroke-miterlimit:10;}
	.st21{fill:#777676;}
</style>
<g id="Layer_1">
</g>
<g id="Layer_2">
	<g>
		
			<rect x="32.7" y="83.4" transform="matrix(-1.836970e-16 1 -1 -1.836970e-16 144.9901 65.2048)" class="st5" width="14.5" height="43.5"/>
		<polygon class="st6" points="47.2,18.3 47.2,47.2 32.7,47.2 32.7,18.3 18.2,18.3 18.2,61.7 47.2,61.7 47.2,90.6 61.7,90.6 
			61.7,18.3 		"/>
		<g>
			<path class="st7" d="M68.7,40v72.3h14.5V83.4h29V40H68.7z M97.7,68.9H83.2V54.5h14.5V68.9z"/>
			<rect x="68.7" y="18.3" class="st5" width="43.4" height="14.6"/>
			<rect x="90.4" y="90.7" class="st6" width="21.7" height="21.7"/>
		</g>
		<rect x="18.2" y="69" class="st7" width="21.7" height="21.7"/>
	</g>
</g>
</svg>
